<svg xmlns="http://www.w3.org/2000/svg" width="24" height="18" viewBox="0 0 24 18"><g><g><g><path fill="#00247d" d="M-5 0h34v17.937H-5z"/></g><g><path fill="#fff" d="M29 17.935h-3.828l-10.356-5.457v5.457H9.184v-5.452l-10.328 5.452H-5v-2l7.563-3.995H-5V6.001h7.526L-5 2.034V.005h3.821L9.184 5.47V.005h5.632v5.463L25.159.005h3.171l.67.013v2.005l-7.536 3.978H29v5.94h-7.544L29 15.917z"/></g><g><path fill="#cf142b" d="M17.684 11.94h2.55L29 16.647v1.345zM13.7 17.935h-3.347v-7.171H-5.001v-3.53h15.354V.004H13.7v7.228H29v3.53H13.7zm1.434-11.934L26.45.005H29L17.684 6.001zM-5 1.35V.005l11.316 5.94h-2.55zM8.865 11.94l-11.262 5.995h-2.55L6.369 11.94z"/></g></g></g></svg>